<svg width="98" height="33" viewBox="0 0 98 33" fill="none" xmlns="http://www.w3.org/2000/svg">
<path d="M8.49668 24.2412C9.19158 24.2412 9.76013 24.1886 10.2023 24.0833C10.6656 23.957 11.0341 23.799 11.3079 23.6095C11.5816 23.3989 11.7711 23.1568 11.8764 22.883C11.9817 22.6093 12.0343 22.304 12.0343 21.967C12.0343 21.2511 11.6974 20.6615 11.0236 20.1982C10.3497 19.7139 9.19158 19.198 7.5491 18.6505C6.83315 18.3978 6.11719 18.1135 5.40124 17.7977C4.68528 17.4607 4.04303 17.0501 3.47448 16.5658C2.90593 16.0604 2.44267 15.4603 2.08469 14.7654C1.72671 14.0494 1.54772 13.1861 1.54772 12.1753C1.54772 11.1646 1.73724 10.2591 2.11627 9.45891C2.49531 8.63767 3.03227 7.94277 3.72717 7.37422C4.42207 6.80567 5.26436 6.37399 6.25407 6.07919C7.24377 5.76332 8.35981 5.60539 9.6022 5.60539C11.0762 5.60539 12.3502 5.76332 13.4241 6.07919C14.4981 6.39505 15.3825 6.7425 16.0774 7.12153L14.656 11.0066C14.0453 10.6908 13.361 10.417 12.6029 10.1854C11.8659 9.9327 10.9709 9.80636 9.91806 9.80636C8.73885 9.80636 7.88602 9.97482 7.35958 10.3117C6.8542 10.6276 6.60151 11.1224 6.60151 11.7963C6.60151 12.1964 6.69627 12.5333 6.88579 12.807C7.07531 13.0808 7.33852 13.3335 7.67544 13.5651C8.03342 13.7757 8.43351 13.9757 8.87572 14.1653C9.33898 14.3337 9.84436 14.5127 10.3919 14.7022C11.529 15.1234 12.5187 15.5445 13.361 15.9657C14.2033 16.3658 14.8982 16.8395 15.4456 17.387C16.0142 17.9345 16.4353 18.5768 16.7091 19.3138C16.9828 20.0508 17.1197 20.9458 17.1197 21.9986C17.1197 24.0412 16.4038 25.631 14.9719 26.7681C13.5399 27.8842 11.3816 28.4422 8.49668 28.4422C7.52804 28.4422 6.65416 28.379 5.87503 28.2527C5.0959 28.1474 4.40101 28.0105 3.79034 27.8421C3.20073 27.6736 2.68483 27.4946 2.24262 27.3051C1.82147 27.1156 1.46349 26.9366 1.16869 26.7681L2.55848 22.8515C3.21126 23.2094 4.01145 23.5358 4.95903 23.8306C5.92767 24.1044 7.10689 24.2412 8.49668 24.2412ZM36.5294 6.11077V10.3117H29.9279V28H25.0005V10.3117H18.399V6.11077H36.5294ZM51.7611 28C51.5295 27.2419 51.2663 26.4628 50.9715 25.6626C50.6977 24.8624 50.424 24.0623 50.1502 23.2621H41.622C41.3482 24.0623 41.0639 24.8624 40.7691 25.6626C40.4954 26.4628 40.2427 27.2419 40.0111 28H34.8941C35.7153 25.6416 36.4945 23.4621 37.2315 21.4617C37.9685 19.4612 38.6844 17.5766 39.3793 15.8077C40.0953 14.0389 40.7902 12.3648 41.464 10.7855C42.1589 9.18516 42.8749 7.62691 43.6119 6.11077H48.3182C49.0342 7.62691 49.7396 9.18516 50.4345 10.7855C51.1294 12.3648 51.8243 14.0389 52.5192 15.8077C53.2351 17.5766 53.9616 19.4612 54.6986 21.4617C55.4356 23.4621 56.2148 25.6416 57.036 28H51.7611ZM45.8545 11.0698C45.7492 11.3857 45.5913 11.8173 45.3807 12.3648C45.1701 12.9123 44.928 13.5441 44.6542 14.26C44.3805 14.976 44.0751 15.7656 43.7382 16.629C43.4224 17.4923 43.096 18.3978 42.7591 19.3454H48.9815C48.6446 18.3978 48.3182 17.4923 48.0024 16.629C47.6865 15.7656 47.3812 14.976 47.0864 14.26C46.8126 13.5441 46.5705 12.9123 46.3599 12.3648C46.1493 11.8173 45.9808 11.3857 45.8545 11.0698ZM66.2814 5.85808C69.5664 5.85808 72.0827 6.44769 73.8305 7.62691C75.5783 8.78507 76.4521 10.596 76.4521 13.0597C76.4521 14.5969 76.0942 15.8498 75.3782 16.8185C74.6833 17.7661 73.6726 18.5136 72.3459 19.0611C72.7881 19.6086 73.2514 20.2403 73.7357 20.9563C74.2201 21.6512 74.6938 22.3882 75.1571 23.1673C75.6414 23.9254 76.1047 24.7256 76.5469 25.5679C76.9891 26.3891 77.3997 27.1998 77.7788 28H72.2512C71.8511 27.284 71.4405 26.5576 71.0193 25.8206C70.6192 25.0835 70.1981 24.3676 69.7559 23.6727C69.3347 22.9778 68.9136 22.325 68.4924 21.7143C68.0713 21.0826 67.6501 20.5141 67.229 20.0087H64.7968V28H59.8694V6.42663C60.9433 6.21606 62.0488 6.06866 63.1859 5.98443C64.3441 5.9002 65.3759 5.85808 66.2814 5.85808ZM66.5657 10.059C66.2077 10.059 65.8813 10.0696 65.5865 10.0906C65.3127 10.1117 65.0495 10.1327 64.7968 10.1538V16.092H66.1866C68.0397 16.092 69.3663 15.8604 70.1665 15.3971C70.9667 14.9338 71.3668 14.1442 71.3668 13.0281C71.3668 11.9542 70.9561 11.1961 70.1349 10.7539C69.3347 10.2907 68.145 10.059 66.5657 10.059ZM96.864 6.11077V10.3117H90.2625V28H85.335V10.3117H78.7335V6.11077H96.864Z" fill="#393E46"/>
<path d="M51.7543 28C51.5227 27.2419 51.2595 26.4628 50.9647 25.6626C50.6909 24.8624 50.4172 24.0623 50.1434 23.2621H41.6152C41.3414 24.0623 41.0571 24.8624 40.7623 25.6626C40.4886 26.4628 40.2359 27.2419 40.0043 28H34.8873C35.7085 25.6416 36.4877 23.4621 37.2247 21.4617C37.9617 19.4612 38.6776 17.5766 39.3725 15.8077C40.0885 14.0389 40.7834 12.3648 41.4572 10.7855C42.1521 9.18516 42.8681 7.62691 43.6051 6.11077H48.3114C49.0274 7.62691 49.7328 9.18516 50.4277 10.7855C51.1226 12.3648 51.8175 14.0389 52.5124 15.8077C53.2283 17.5766 53.9548 19.4612 54.6918 21.4617C55.4289 23.4621 56.208 25.6416 57.0292 28H51.7543ZM45.8477 11.0698C45.7424 11.3857 45.5845 11.8173 45.3739 12.3648C45.1633 12.9123 44.9212 13.5441 44.6474 14.26C44.3737 14.976 44.0684 15.7656 43.7314 16.629C43.4156 17.4923 43.0892 18.3978 42.7523 19.3454H48.9747C48.6378 18.3978 48.3114 17.4923 47.9956 16.629C47.6797 15.7656 47.3744 14.976 47.0796 14.26C46.8058 13.5441 46.5637 12.9123 46.3531 12.3648C46.1425 11.8173 45.9741 11.3857 45.8477 11.0698Z" fill="#FFC842"/>
<path d="M66.3667 5.79443C69.6306 5.79443 72.1364 6.37351 73.8842 7.53167C75.6319 8.66878 76.5058 10.5429 76.5058 13.154C76.5058 15.7862 75.6214 17.6919 73.8526 18.8711C72.0838 20.0293 69.5569 20.6084 66.2719 20.6084H64.8127V28.111H59.7967V6.36299C60.8707 6.15241 62.0078 6.00501 63.208 5.92078C64.4083 5.83655 65.4612 5.79443 66.3667 5.79443ZM66.6825 10.294C66.3245 10.294 65.9666 10.3046 65.6086 10.3256C65.2717 10.3467 65.0654 10.3677 64.8127 10.3888V16.0154H66.2719C67.9776 16.0154 69.2621 15.7838 70.1254 15.3205C70.7143 14.8413 71.3254 14.3859 71.3254 13.1224C71.3254 12.5118 71.1205 12.0111 70.8889 11.611C70.6783 11.2109 70.5984 11.1057 70.1254 10.8456C69.5143 10.5095 69.2439 10.5316 68.4444 10.3888C67.8548 10.2835 67.3985 10.294 66.6825 10.294Z" fill="#FFC842"/>
</svg>
